<svg xmlns="http://www.w3.org/2000/svg" viewBox="0 9.678321678321678 50.4 60.97902097902097" style="max-height: 500px" width="50.4" height="60.97902097902097">
  <defs>
    <linearGradient y2="0%" x2="100%" y1="0%" x1="0%" id="energyFlow">
      <stop style="stop-color:#2563EB;stop-opacity:1" offset="0%"/>
      <stop style="stop-color:#FF6B35;stop-opacity:1" offset="50%"/>
      <stop style="stop-color:#1E3A5F;stop-opacity:1" offset="100%"/>
    </linearGradient>
    
    <linearGradient y2="100%" x2="100%" y1="0%" x1="0%" id="fireAccent">
      <stop style="stop-color:#FF6B35;stop-opacity:1" offset="0%"/>
      <stop style="stop-color:#F7931E;stop-opacity:0.8" offset="100%"/>
    </linearGradient>
  </defs>
  
  
  <g id="icon">
    
    <path stroke-linecap="round" stroke-width="3" stroke="#1E3A5F" fill="none" d="M 10 20 L 10 60 Q 10 65 15 65 L 25 65 Q 40 65 40 52.5 Q 40 40 27 40 Q 40 40 40 27.5 Q 40 15 25 15 L 15 15 Q 10 15 10 20"/>
    
    
    <path opacity="0.8" stroke-linecap="round" stroke-width="2" stroke="url(#energyFlow)" fill="none" d="M 15 25 Q 30 25 35 30 Q 40 35 35 40">
      
    </path>
    
    <path opacity="0.8" stroke-linecap="round" stroke-width="2" stroke="url(#energyFlow)" fill="none" d="M 15 55 Q 28 55 33 50 Q 38 45 33 40">
      
    </path>
    
    
    <circle fill="url(#fireAccent)" r="3" cy="25" cx="20">
      
    </circle>
    <circle opacity="0.8" fill="#2563EB" r="2.5" cy="30" cx="32"/>
    <circle fill="url(#fireAccent)" r="3.5" cy="40" cx="35">
      
    </circle>
    <circle opacity="0.8" fill="#2563EB" r="2.5" cy="50" cx="28"/>
    <circle fill="url(#fireAccent)" r="3" cy="55" cx="20">
      
    </circle>
    
    
    <line opacity="0.4" stroke-width="1" stroke="#6B7280" y2="30" x2="32" y1="25" x1="20"/>
    <line opacity="0.4" stroke-width="1" stroke="#6B7280" y2="40" x2="35" y1="30" x1="32"/>
    <line opacity="0.4" stroke-width="1" stroke="#6B7280" y2="50" x2="28" y1="40" x1="35"/>
    <line opacity="0.4" stroke-width="1" stroke="#6B7280" y2="55" x2="20" y1="50" x1="28"/>
  </g>
  
  
  <g id="text">
    <text fill="#1E3A5F" font-weight="500" font-size="28" font-family="'Inter', -apple-system, system-ui, sans-serif" y="45" x="55">Bradley.ai</text>
    <text fill="#1E3A5F" font-weight="400" font-size="10" font-family="'Inter', -apple-system, system-ui, sans-serif" y="38" x="196">®</text>
  </g>
  
  <text letter-spacing="0.5" fill="#6B7280" font-weight="400" font-size="10" font-family="'Inter', -apple-system, system-ui, sans-serif" y="60" x="55">AI-POWERED DER ANALYSIS</text>
</svg>